<?xml version="1.0" standalone="no"?>
<!DOCTYPE svg PUBLIC "-//W3C//DTD SVG 20010904//EN"
 "http://www.w3.org/TR/2001/REC-SVG-20010904/DTD/svg10.dtd">
<svg version="1.0" xmlns="http://www.w3.org/2000/svg"
 width="248.000000pt" height="237.000000pt" viewBox="0 0 248.000000 237.000000"
 preserveAspectRatio="xMidYMid meet">

<g transform="translate(0.000000,237.000000) scale(0.100000,-0.100000)"
fill="#000000" stroke="none">
<path d="M1342 1861 c-61 -32 -95 -62 -123 -108 -12 -18 -25 -31 -30 -28 -5 4
-6 0 -4 -7 4 -10 -5 -15 -30 -16 -19 -2 -35 2 -35 8 0 5 -7 10 -16 10 -9 0
-12 5 -8 12 5 7 3 8 -5 3 -16 -9 -55 31 -45 47 4 6 3 8 -4 4 -6 -3 -17 7 -25
24 -13 24 -13 30 -2 30 7 0 15 -3 18 -7 2 -5 3 -3 2 2 -2 7 31 11 86 11 56 0
86 -3 82 -9 -4 -6 1 -8 11 -4 10 4 27 7 39 8 20 1 20 2 -3 9 -31 10 -186 12
-229 4 -28 -6 -46 -34 -21 -34 5 0 9 -3 8 -7 -11 -34 97 -123 147 -123 17 0
25 -6 26 -17 0 -11 3 -13 6 -5 2 6 17 12 31 12 60 1 162 73 167 117 1 10 5 25
8 33 10 29 15 60 9 59 -4 0 -31 -13 -60 -28z m46 -18 c-4 -23 -21 -26 -43 -7
-17 13 -17 15 -2 10 9 -3 17 -1 17 4 0 6 7 10 16 10 9 0 14 -7 12 -17z"/>
<path d="M1393 1768 c-2 -15 1 -18 6 -10 11 18 64 -6 56 -25 -3 -11 1 -13 15
-8 18 6 20 3 15 -18 -4 -15 -2 -28 6 -33 9 -5 10 -2 6 9 -10 27 11 20 47 -16
l34 -32 -24 -45 c-13 -24 -27 -66 -30 -92 l-7 -48 -57 0 c-32 0 -85 -8 -117
-18 l-59 -19 -34 24 c-19 12 -40 23 -48 23 -7 0 -11 3 -9 8 3 4 -6 8 -19 8
-28 2 -30 -9 -8 -72 l15 -46 -56 -57 c-97 -98 -154 -254 -140 -385 7 -63 31
-152 47 -173 6 -7 4 -13 -4 -16 -9 -4 -8 -6 3 -6 8 -1 30 -22 48 -47 18 -25
35 -43 38 -40 3 3 -2 12 -11 21 -9 9 -20 25 -26 35 -9 16 -4 18 71 19 73 1 79
0 71 -16 -5 -10 -15 -42 -22 -70 -6 -29 -16 -50 -21 -47 -5 3 -6 10 -3 16 4 7
2 8 -5 4 -6 -4 -14 0 -17 8 -3 9 -12 16 -20 16 -7 0 7 -19 31 -41 25 -23 43
-44 41 -48 -3 -4 3 -7 12 -7 9 -1 24 -4 32 -8 21 -9 113 69 161 137 21 30 51
86 65 123 26 70 40 87 59 77 5 -4 7 -2 2 2 -4 5 5 21 20 37 27 29 24 32 -23
29 -20 -2 -22 3 -22 66 -1 37 -6 84 -12 103 -5 19 -10 37 -10 40 0 3 24 6 53
6 57 1 157 23 157 35 0 4 10 9 23 13 12 3 39 21 60 41 43 39 52 43 43 18 -5
-15 -4 -15 9 1 14 18 20 15 16 -7 -1 -5 3 -6 9 -2 8 5 8 11 -1 21 -6 7 -15 11
-20 8 -14 -9 -11 1 26 73 19 37 36 84 38 103 2 19 2 27 0 18 -2 -10 -9 -18
-14 -18 -5 0 -8 -10 -7 -22 2 -30 -28 -98 -42 -98 -6 0 -8 -4 -5 -10 13 -21
-9 -9 -47 25 -21 20 -50 41 -64 47 -13 6 -27 23 -30 37 -3 14 -14 50 -25 80
-16 44 -17 56 -7 64 10 7 9 8 -3 4 -10 -3 -22 5 -33 23 -33 58 -191 200 -220
200 -7 0 -13 -10 -13 -22z"/>
<path d="M1090 1766 c0 -2 7 -7 16 -10 8 -3 12 -2 9 4 -6 10 -25 14 -25 6z"/>
<path d="M1785 1750 c-2 -4 10 -6 27 -4 17 2 29 1 25 -2 -3 -4 1 -13 9 -21 9
-9 12 -24 9 -37 -4 -14 -3 -17 3 -8 11 16 19 3 39 -68 l12 -45 -5 45 c-3 24
-18 67 -34 96 -24 41 -35 52 -55 52 -14 0 -27 -4 -30 -8z"/>
<path d="M1755 1740 c3 -5 8 -10 11 -10 2 0 4 5 4 10 0 6 -5 10 -11 10 -5 0
-7 -4 -4 -10z"/>
<path d="M1699 1727 c-42 -19 -91 -66 -83 -79 5 -8 10 -5 14 8 4 11 21 26 36
34 16 8 31 18 34 21 3 3 14 11 25 17 26 15 8 14 -26 -1z"/>
<path d="M1278 1673 c7 -3 16 -2 19 1 4 3 -2 6 -13 5 -11 0 -14 -3 -6 -6z"/>
<path d="M1340 1660 c-9 -6 -10 -10 -3 -10 6 0 15 5 18 10 8 12 4 12 -15 0z"/>
<path d="M1167 1626 c-5 -15 -6 -31 -3 -34 8 -8 18 25 14 45 -3 13 -6 10 -11
-11z"/>
<path d="M1845 1600 c-3 -5 -1 -10 4 -10 6 0 11 5 11 10 0 6 -2 10 -4 10 -3 0
-8 -4 -11 -10z"/>
<path d="M1240 1580 c0 -5 5 -10 10 -10 6 0 10 5 10 10 0 6 -4 10 -10 10 -5 0
-10 -4 -10 -10z"/>
<path d="M1151 1536 c-1 -37 2 -47 10 -39 8 8 8 22 1 50 l-10 38 -1 -49z"/>
<path d="M850 1489 c-119 -32 -291 -160 -289 -216 1 -25 2 -26 7 -6 4 12 24
43 45 68 29 34 43 44 58 40 15 -5 17 -3 12 11 -5 14 -3 16 11 11 9 -4 15 -3
12 2 -8 12 18 32 35 28 8 -2 10 -2 6 1 -19 10 115 56 188 65 23 3 20 4 -10 5
-22 0 -56 -4 -75 -9z"/>
<path d="M1025 1489 c22 -4 54 -8 70 -7 29 0 29 0 5 8 -14 4 -45 8 -70 8 l-45
0 40 -9z"/>
<path d="M1295 1470 c-16 -7 -17 -9 -3 -9 9 -1 20 4 23 9 7 11 7 11 -20 0z"/>
<path d="M813 1443 c9 -2 23 -2 30 0 6 3 -1 5 -18 5 -16 0 -22 -2 -12 -5z"/>
<path d="M1720 1403 c0 -1 8 -7 18 -12 13 -7 19 -6 19 2 0 7 -9 13 -19 13 -10
0 -18 -1 -18 -3z"/>
<path d="M1127 1350 c3 -11 7 -20 8 -20 1 0 5 9 8 20 3 12 0 20 -8 20 -8 0
-11 -8 -8 -20z"/>
<path d="M1867 1223 c-3 -5 5 -21 19 -36 13 -14 24 -28 24 -30 0 -6 -52 -21
-62 -19 -5 1 -8 -3 -8 -8 0 -10 20 -8 73 7 16 4 16 7 -4 41 -29 49 -36 56 -42
45z"/>
<path d="M571 1193 c-1 -17 4 -35 9 -38 12 -7 12 22 0 50 -7 17 -9 15 -9 -12z"/>
<path d="M1794 1185 c11 -8 24 -15 30 -15 5 0 1 7 -10 15 -10 8 -23 14 -29 14
-5 0 -1 -6 9 -14z"/>
<path d="M1739 1144 c18 -8 48 -13 65 -11 29 4 29 4 -6 5 -21 1 -38 7 -38 12
0 6 -12 10 -27 9 -28 -1 -28 -1 6 -15z"/>
<path d="M975 1139 c-4 -6 -5 -12 -2 -15 2 -3 7 2 10 11 7 17 1 20 -8 4z"/>
<path d="M1670 1135 c0 -8 2 -15 4 -15 2 0 6 7 10 15 3 8 1 15 -4 15 -6 0 -10
-7 -10 -15z"/>
<path d="M1600 1120 c0 -5 5 -10 11 -10 5 0 7 5 4 10 -3 6 -8 10 -11 10 -2 0
-4 -4 -4 -10z"/>
<path d="M590 1105 c0 -8 5 -15 10 -15 6 0 10 7 10 15 0 8 -4 15 -10 15 -5 0
-10 -7 -10 -15z"/>
<path d="M1644 1096 c6 -35 12 -42 19 -22 3 8 -1 22 -9 33 -13 17 -14 16 -10
-11z"/>
<path d="M975 1089 c-4 -6 -5 -12 -2 -15 2 -3 7 2 10 11 7 17 1 20 -8 4z"/>
<path d="M608 1063 c15 -37 52 -102 61 -107 4 -3 9 6 9 20 0 17 -3 22 -8 13
-6 -8 -15 3 -30 34 -21 45 -48 78 -32 40z"/>
<path d="M1621 1009 c-13 -22 -29 -43 -37 -46 -8 -3 -14 -12 -14 -19 0 -12 4
-11 18 3 23 23 66 93 60 98 -2 3 -15 -13 -27 -36z"/>
<path d="M1550 975 c-20 -24 -6 -28 15 -5 10 11 13 20 8 20 -6 0 -16 -7 -23
-15z"/>
<path d="M701 912 c54 -65 218 -173 261 -172 17 1 -61 40 -79 40 -8 0 -12 4
-8 9 3 5 -4 12 -15 16 -11 4 -18 11 -15 16 3 5 -1 6 -10 3 -17 -7 -48 14 -39
27 3 5 -3 6 -13 2 -17 -6 -17 -5 1 15 11 12 14 22 8 22 -7 0 -12 -4 -12 -10 0
-22 -30 -8 -56 25 -14 19 -31 35 -36 35 -5 0 1 -12 13 -28z"/>
<path d="M1588 908 c-4 -9 9 -14 45 -15 60 -2 181 -57 173 -78 -3 -10 0 -12
11 -8 12 5 15 2 10 -10 -4 -11 -2 -14 9 -10 7 3 14 1 14 -3 1 -14 40 -60 40
-48 0 7 -19 33 -42 59 -45 50 -106 86 -178 105 -25 6 -52 13 -61 16 -9 2 -19
-1 -21 -8z"/>
<path d="M988 733 c7 -3 16 -2 19 1 4 3 -2 6 -13 5 -11 0 -14 -3 -6 -6z"/>
<path d="M1846 723 c-6 -14 -5 -15 5 -6 7 7 10 15 7 18 -3 3 -9 -2 -12 -12z"/>
<path d="M1880 699 c0 -5 -5 -7 -12 -3 -6 4 -8 3 -5 -3 4 -6 -21 -38 -55 -72
-34 -33 -57 -61 -51 -61 13 0 133 127 133 140 0 6 -2 10 -5 10 -3 0 -5 -5 -5
-11z"/>
<path d="M1800 659 c0 -5 5 -7 10 -4 6 3 10 8 10 11 0 2 -4 4 -10 4 -5 0 -10
-5 -10 -11z"/>
<path d="M1687 556 c-4 -10 -1 -13 9 -9 15 6 19 23 5 23 -5 0 -11 -7 -14 -14z"/>
<path d="M1681 530 c-30 -16 -79 -33 -110 -39 -72 -15 -174 -14 -189 1 -9 9
-15 9 -23 1 -17 -17 68 -27 164 -20 59 5 97 15 148 38 38 18 69 36 69 40 0 5
-1 8 -2 8 -2 -1 -27 -14 -57 -29z"/>
<path d="M1280 511 c0 -8 34 -21 55 -21 11 1 -35 29 -47 30 -5 0 -8 -4 -8 -9z"/>
<path d="M1200 500 c0 -5 7 -7 15 -4 8 4 15 8 15 10 0 2 -7 4 -15 4 -8 0 -15
-4 -15 -10z"/>
</g>
</svg>
